<?xml version="1.0" encoding="UTF-8" standalone="no"?>
<svg width="180px" height="96px" viewBox="0 0 180 96" version="1.1" xmlns="http://www.w3.org/2000/svg" xmlns:xlink="http://www.w3.org/1999/xlink" xmlns:sketch="http://www.bohemiancoding.com/sketch/ns">
    <!-- Generator: Sketch 3.2.2 (9983) - http://www.bohemiancoding.com/sketch -->
    <title>logo_lumitri</title>
    <desc>Created with Sketch.</desc>
    <defs></defs>
    <g id="Page-1" stroke="none" stroke-width="1" fill="none" fill-rule="evenodd" sketch:type="MSPage">
        <g id="logo_lumitri" sketch:type="MSLayerGroup">
            <path d="M0.219825784,0.0309473684 L179.780174,0.0309473684 L179.780174,95.8121053 L0.219825784,95.8121053 L0.219825784,0.0309473684 L0.219825784,0.0309473684 Z" fill="#1A1918" sketch:type="MSShapeGroup"></path>
            <path d="M17.4173519,69.7471579 C17.633101,69.5450526 17.8337979,69.3214737 18.0551916,69.1275789 C17.8337979,69.3214737 17.633101,69.5450526 17.4173519,69.7471579 Z M113.51101,58.8173684 C113.792927,58.4393684 114.190557,58.1485263 114.469965,57.7692632 C115.192787,56.7884211 114.700453,55.6215789 113.502544,55.422 C112.690662,55.2865263 112.065993,55.5031579 111.547003,56.2209474 C110.231812,58.0408421 108.71216,59.6564211 106.62899,60.6135789 C106.044774,60.882 105.446446,61.1197895 104.783206,61.4021053 C103.637038,61.7472632 102.129303,61.4794737 102.340662,60.0969474 C102.446655,59.7672632 102.490557,59.538 102.590592,59.3365263 C103.037456,58.4368421 103.389617,57.5428421 103.311847,56.4814737 C103.245993,55.584 103.094843,55.08 102.493693,54.9003158 C101.813833,54.6972632 101.451638,55.104 101.108571,55.6095789 C100.325854,56.7641053 99.3719164,57.7392632 98.0843206,58.3256842 C96.0679443,59.244 94.0766551,60.2289474 92.0126132,61.0222105 C91.365993,61.2710526 90.4694425,61.6332632 89.6149129,60.7698947 C89.8432056,60.2924211 89.984007,59.8263158 90.2568293,59.4596842 C90.9915679,58.4718947 91.8247735,57.5570526 92.537561,56.5544211 C93.0797561,55.7921053 93.5090592,54.9461053 93.9590592,54.1212632 C94.0352613,53.982 94.0252265,53.7268421 93.9487108,53.5822105 C93.1493728,52.0692632 92.4902091,51.294 90.7946341,52.6149474 C90.5017422,52.8432632 90.2251568,53.1382105 90.0464111,53.4618947 C89.2219861,54.954 88.4373868,56.4685263 87.6333449,57.9726316 C87.3015679,58.5937895 87.1099652,59.4795789 86.5903484,59.7767368 C84.8358188,60.78 83.0267247,61.7737895 81.1169686,62.3883158 C79.3263763,62.9643158 78.4928571,62.1584211 78.4894077,60.0132632 C78.4890941,59.646 78.5847387,59.2335789 78.7669338,58.9187368 C79.6192683,57.4462105 80.4932404,55.9847368 81.4079791,54.5504211 C81.9420209,53.7129474 82.5632404,52.9316842 83.1524739,52.1305263 C83.6432404,51.4629474 83.6658188,50.7246316 83.491777,49.9575789 C83.3305923,49.2464211 82.71,49.1861053 82.1668641,49.0967368 C81.635331,49.0095789 81.3113937,49.3272632 81.0821603,49.8148421 C80.6845296,50.6611579 80.2643206,51.5005263 79.7939373,52.3073684 C79.0563763,53.5727368 78.2410453,54.7923158 77.5106969,56.0617895 C76.7963415,57.3028421 75.9170383,58.2641053 74.419338,58.5097895 C73.8680488,58.6001053 73.3362021,58.8435789 72.8106272,59.0557895 C71.1674216,59.7202105 69.5433449,60.4335789 67.8879094,61.0648421 C67.0976655,61.3661053 66.2641463,61.5821053 65.4318815,61.7330526 C64.4211847,61.9162105 63.7538676,61.2416842 63.9460976,60.2321053 C64.0408014,59.7341053 64.2772474,59.2351579 64.5569686,58.8078947 C65.0725087,58.0203158 65.7297909,57.3233684 66.2130314,56.5187368 C66.8210801,55.5063158 67.3504181,54.4405263 67.8449477,53.3655789 C68.237561,52.5116842 67.8455749,51.792 67.2585366,51.1705263 C66.6583275,50.5351579 65.952439,50.7183158 65.2863763,50.9987368 C64.1812892,51.4638947 63.4885714,52.3594737 62.9902787,53.4202105 C62.2837631,54.9233684 61.6139373,56.4309474 61.3326481,58.1002105 C61.2379443,58.6626316 60.880453,59.2607368 60.4740418,59.6750526 C58.7853659,61.3976842 56.6799303,62.4710526 54.4456098,63.2728421 C52.9300348,63.8169474 51.384669,62.7476842 51.340453,61.1286316 C51.3185017,60.3328421 51.3649129,59.4631579 51.66,58.7431579 C52.9178049,55.6758947 54.6497561,52.9509474 57.5846341,51.1986316 C58.1657143,50.8518947 58.4018467,50.0788421 58.1158537,49.6133684 C57.4206272,48.4822105 56.4905226,48.3186316 55.5425436,49.2296842 C54.7234495,50.0169474 53.9115679,50.8256842 53.2000348,51.7095789 C52.1065505,53.0674737 50.8195819,54.2816842 50.084216,55.9184211 C49.3623345,57.5248421 48.6874913,59.1353684 48.7643206,60.9489474 C48.8424042,62.7846316 50.4275958,65.2411579 52.6318118,65.3930526 C53.9118815,65.4814737 55.2725436,65.4941053 56.4663763,64.7358947 C57.1725784,64.2874737 57.9245645,63.9132632 58.6492683,63.4938947 C59.4906272,63.0066316 60.3244599,62.5064211 61.1306969,62.0302105 C61.7164808,62.6589474 62.1348084,63.366 62.752892,63.7177895 C64.0345296,64.4472632 65.5156098,64.6026316 66.8652962,64.0222105 C69.6239373,62.8357895 72.314216,61.488 75.0380488,60.2188421 C75.2249477,60.1316842 75.4573171,60.1430526 75.7618118,60.0937895 C75.7618118,60.4755789 75.7630662,60.7481053 75.7618118,61.0206316 C75.7514634,63.0903158 77.8525087,64.8969474 79.7876655,64.7892632 C81.4744599,64.6951579 83.0248432,64.1807368 84.4808362,63.3432632 C84.7668293,63.1787368 85.0437282,62.9981053 85.3316028,62.8376842 C86.3143902,62.2910526 87.1676655,62.1341053 88.0849129,63.1348421 C88.6547038,63.7563158 89.4926132,64.2517895 90.504878,63.9903158 C93.0731707,63.3268421 95.5047387,62.3084211 97.8776655,61.1406316 C98.8394425,60.6672632 99.3314634,60.8122105 99.7585714,61.8082105 C99.9040767,62.1476842 100.075923,62.5307368 100.196655,62.8061053 C100.710314,63.9802105 101.827944,64.7838947 103.502509,64.6348421 C104.581254,64.5385263 105.317875,64.3755789 106.143868,63.9498947 C107.181533,63.4149474 108.192544,62.8272632 109.324913,62.2016842 C110.185087,63.6997895 111.487108,64.2502105 112.874739,63.6596842 C113.966655,63.1951579 115.600453,63.0413684 115.614878,61.2385263 C114.675993,60.1177895 113.430732,61.3222105 112.229059,60.7209474 C112.687526,60.0334737 113.072613,59.4053684 113.51101,58.8173684 Z M159.380592,54.5652632 C158.583449,54.84 157.823937,55.2227368 157.039024,55.5366316 C154.62784,56.5007368 152.222613,57.4818947 149.789791,58.3882105 C149.262334,58.5846316 148.629826,58.4955789 147.946202,58.5451579 C147.946202,57.8829474 147.888502,57.4083158 147.956237,56.9523158 C148.217456,55.194 148.759338,53.532 149.725192,52.0234737 C150.41101,50.9526316 150.981742,49.8805263 150.677247,48.4891579 C150.471533,47.5481053 150.239791,47.2237895 149.288049,47.4833684 C148.107073,47.8054737 146.94899,48.2106316 145.77899,48.5731579 C143.891498,49.1576842 142.002753,49.7384211 140.113066,50.3153684 C139.934007,50.37 139.743659,50.4126316 139.5577,50.4154737 C138.890383,50.4258947 138.564251,50.0930526 138.702544,49.4346316 C138.798188,48.9808421 139.038084,48.5551579 139.232509,48.1253684 C139.51223,47.5067368 139.515993,46.9187368 139.034948,46.4049474 C138.54324,45.8797895 137.97784,45.6457895 137.248432,45.9543158 C136.917909,46.0942105 136.515889,46.2161053 136.177526,46.1592632 C133.686063,45.7383158 131.305923,46.1330526 128.980035,47.0409474 C128.459791,47.244 127.927631,47.4164211 127.401115,47.6030526 C127.311115,47.5244211 127.221115,47.4457895 127.130801,47.3671579 C127.304216,46.9496842 127.459443,46.5233684 127.654181,46.116 C128.16439,45.0473684 128.68777,43.9850526 129.215226,42.9249474 C129.316829,42.7203158 129.451672,42.5305263 129.586202,42.3448421 C130.244111,41.4353684 130.996098,40.5814737 131.552091,39.6132632 C133.366202,36.4550526 135.047038,33.216 137.410244,30.4117895 C137.680871,30.0909474 137.88878,29.7050526 138.071603,29.3229474 C138.71446,27.9795789 138.314321,27.3691579 136.841394,27.3075789 C136.19446,27.2807368 135.921951,27.6606316 135.642544,28.1245263 C134.053589,30.7613684 132.439861,33.3830526 130.86878,36.0303158 C129.762125,37.8950526 128.691847,39.7752632 127.502404,41.5951579 C126.240209,43.5262105 125.29223,45.6647368 124.19122,47.7037895 C123.507596,48.9694737 122.722683,50.1258947 121.333798,50.7581053 C120.838955,50.9832632 120.42784,51.438 120.041185,51.8478947 C119.65892,52.2533684 119.709094,52.6913684 120.123345,53.1012632 C120.440697,53.4157895 120.891951,53.7517895 120.949652,54.1301053 C121.012997,54.5453684 120.737666,55.0414737 120.532892,55.4646316 C119.848955,56.8803158 119.090697,58.2505263 117.890592,59.3112632 C117.553171,59.6096842 117.266864,59.9687368 117.621847,60.4130526 C117.949861,60.8238947 118.408328,60.9391579 118.895017,60.6941053 C119.231812,60.5242105 119.641359,60.3805263 119.852718,60.0988421 C120.672439,59.0062105 121.516934,57.9138947 122.176098,56.7227368 C122.732718,55.7172632 123.042857,54.5737895 123.469965,53.4944211 C123.538955,53.3201053 123.628328,53.1461053 123.743101,52.9995789 C124.565017,51.9508421 125.584181,51.144 126.783031,50.5793684 C127.929199,50.0396842 129.069408,49.4766316 130.250383,49.0241053 C131.333519,48.6091579 132.495366,48.5368421 133.85446,48.3208421 C133.651882,49.1586316 133.607666,49.7914737 133.350523,50.3191579 C132.666585,51.7237895 131.924634,53.1028421 131.143171,54.4550526 C130.221533,56.0494737 129.19547,57.5832632 128.287003,59.1846316 C127.424007,60.7057895 127.808467,61.6376842 129.685923,62.4975789 C130.031185,62.0251579 130.476167,61.5461053 130.767805,60.9858947 C131.181429,60.1916842 131.389652,59.2815789 131.848432,58.5205263 C133.18338,56.3052632 134.59892,54.1395789 135.942648,52.0181053 C136.597422,52.4062105 137.147456,52.8925263 137.783728,53.0791579 C139.598153,53.6109474 141.314111,53.1543158 142.922195,52.2555789 C143.973659,51.6678947 145.104774,51.5624211 146.442544,51.4443158 C146.072195,52.4876842 145.780557,53.3766316 145.441882,54.2475789 C144.936063,55.5486316 144.715923,56.8992632 144.756063,58.2836842 C144.814077,60.2958947 146.125819,61.5227368 148.123066,61.4583158 C148.589373,61.4434737 149.079512,61.3942105 149.512265,61.2331579 C151.137282,60.6287368 152.745366,59.976 154.35439,59.3283158 C154.569199,59.2417895 154.817247,59.1243158 154.941115,58.9449474 C155.29547,58.4324211 155.853345,58.3547368 156.35101,58.1046316 C157.646132,57.4537895 158.884495,56.6826316 160.111568,55.9051579 C160.543066,55.6313684 160.888014,55.2034737 160.587909,54.4626316 C160.186829,54.4910526 159.752822,54.4370526 159.380592,54.5652632 Z M113.598815,46.8145263 C112.848711,47.6873684 112.816411,48.2144211 113.471185,48.9037895 C114.118432,49.5858947 115.022509,49.7052632 115.704878,49.0345263 C116.317944,48.4316842 116.775784,47.6684211 117.289443,46.9926316 C117.092509,46.6913684 117.07338,46.6446316 117.039512,46.6133684 C115.358049,45.0650526 115.088049,45.0808421 113.598815,46.8145263 Z M153.051115,40.626 C152.351185,40.6326316 151.896481,41.0131579 151.902439,41.5872632 C151.913101,42.5848421 152.745052,43.6837895 153.475714,43.6645263 C154.020732,43.65 155.023275,42.5949474 155.032683,42.0255789 C155.044913,41.2651579 154.126411,40.6162105 153.051115,40.626 Z M55.6140418,25.1024211 C54.5465854,25.3212632 53.5305575,25.6882105 52.7381185,26.5181053 C51.9309408,27.3637895 51.1112195,28.1990526 50.2620209,29.0017895 C49.2754704,29.9343158 48.2086411,30.7837895 47.255331,31.7482105 C46.2662718,32.7492632 45.3612544,33.8358947 44.4405575,34.9032632 C44.0724042,35.3302105 43.7688502,35.8124211 43.4207666,36.258 C42.3743206,37.5969474 41.2460279,38.8787368 40.2873868,40.2786316 C38.9047735,42.2971579 37.6366202,44.3958947 36.3336585,46.4693684 C35.9084321,47.1457895 35.5048432,47.838 35.1322997,48.5450526 C34.7164808,49.3348421 34.4678049,50.2458947 33.9290592,50.9305263 C33.1353659,51.9391579 32.7860279,53.0996842 32.4137979,54.2677895 C31.9681882,55.6657895 31.2691986,57.0701053 31.23,58.4873684 C31.1851568,60.1067368 30.3274913,60.7294737 29.1684669,61.3522105 C28.507108,61.7074737 27.882439,62.1366316 27.2637282,62.5651579 C26.802439,62.8847368 26.3894425,63.2741053 25.9331707,63.6015789 C24.28777,64.7835789 22.6389199,65.9605263 20.9800348,67.1229474 C20.0916376,67.7453684 19.1712544,68.3207368 18.2847387,68.9456842 C18.2050871,69.0015789 18.128885,69.0631579 18.0551916,69.1275789 C17.8337979,69.3214737 17.633101,69.5450526 17.4173519,69.7471579 C17.5387108,69.8621053 17.6531707,69.9941053 17.7695122,70.122 C17.9629965,70.3354737 18.1608711,70.5382105 18.4007666,70.6338947 C18.8071777,70.7962105 19.3945296,70.8609474 19.7636237,70.6803158 C20.5491638,70.2953684 21.2980139,69.7875789 21.9659582,69.2163158 C23.3883972,68.0002105 24.7346341,66.6950526 26.3668641,65.7454737 C26.6835889,65.5613684 26.8962021,65.2038947 27.2010105,64.9901053 C28.433101,64.1264211 29.6827526,63.2873684 30.9869686,62.3974737 C31.2381533,62.6365263 31.3679791,62.7154737 31.4354007,62.8310526 C32.4426481,64.5568421 33.5317422,66.1897895 35.5920209,66.7998947 C35.7202787,66.8381053 35.8256446,66.9584211 35.9397909,67.0430526 C37.5033449,68.2010526 39.2516028,68.088 40.9587805,67.6124211 C43.3009756,66.9603158 45.331777,65.6561053 47.2362021,64.1589474 C48.0258188,63.5381053 48.2798258,62.9734737 47.8931707,62.6709474 C47.2772822,62.1890526 46.8965854,62.7865263 46.422439,63.0552632 C44.7067944,64.0269474 43.0639024,65.3137895 41.2149826,65.8187368 C38.4936585,66.5614737 35.978676,65.6687368 34.125993,63.3849474 C32.9854704,61.9793684 33.130662,60.3546316 34.4615331,59.3017895 C37.1706272,57.1585263 39.6790244,54.7967368 41.8245993,52.0869474 C43.8463066,49.5334737 45.7472822,46.8821053 47.6677003,44.2490526 C48.5005923,43.1071579 49.2321951,41.8910526 50.0406272,40.7305263 C51.4668293,38.6829474 52.9510453,36.6751579 54.3427526,34.6042105 C55.0928571,33.4882105 55.725993,32.2948421 56.3481533,31.0916842 C57.0628223,29.7088421 57.5720906,28.3714737 57.6439024,26.8578947 C57.7034843,25.596 56.8332753,24.8523158 55.6140418,25.1024211 Z M55.4472125,30.3167368 C54.5603833,31.9272632 53.5612892,33.4796842 52.5408711,35.0103158 C51.6515331,36.3442105 50.6527526,37.6032632 49.7320557,38.9163158 C48.2365505,41.0491579 46.8200697,43.2404211 45.2671777,45.3296842 C43.8284321,47.2661053 42.1824042,49.0471579 40.7596516,50.9943158 C39.1468641,53.202 36.9517422,54.7777895 35.0357143,56.6538947 C34.5785017,57.1016842 33.9839373,57.4073684 33.2902787,57.8917895 C33.6712892,55.5821053 34.0391289,53.5181053 35.2621254,51.7269474 C35.3414634,51.6107368 35.4041812,51.4765263 35.4455749,51.3416842 C36.3684669,48.3318947 38.5215679,46.0575789 40.1167944,43.4516842 C41.1798606,41.7148421 42.2852613,39.9893684 43.5324042,38.3854737 C44.8952613,36.6325263 46.383554,34.9664211 47.9279791,33.3713684 C49.4015331,31.8498947 50.9352962,30.3606316 52.6039024,29.0684211 C53.5208362,28.3578947 54.5302787,27.5087368 55.9232404,27.5927368 C56.2666202,28.6048421 55.8856098,29.5206316 55.4472125,30.3167368 Z" id="logo_lumitri-path" fill="#FFFFFF" sketch:type="MSShapeGroup"></path>
        </g>
    </g>
</svg>